<?xml version="1.0" encoding="UTF-8"?><svg id="Layer_1" xmlns="http://www.w3.org/2000/svg" viewBox="0 0 1000 1000"><defs><style>.cls-1{fill:#000;stroke-width:0px;}</style></defs><path class="cls-1" d="M239.57,509.49l-14.83-33.4-21.48,49.9-3.33,7.76-.97,2.36c-1.94,6.79,3.33,11.37,5.41,12.2.42.14.42,1.11.42,1.11h-23.28s0-.97.42-1.11c2.22-.83,10.81-7.48,13.58-13.86v.28s36.17-84.13,36.17-84.13h7.62s39.64,89.26,39.64,89.26c2.91,5.82,8.32,7.62,10.4,8.46.42.14.55,1.11.55,1.11h-42.55s0-.97.42-1.11c2.08-.83,7.76-1.52,5.27-8.46l-9.15-20.65-4.3-9.7Z"/><path class="cls-1" d="M237.79,513.6h0c-3.21-3.21-8.42-3.21-11.63,0l-1.81,1.81-1.86-1.86c-3.21-3.21-8.42-3.21-11.63,0h0c-3.21,3.21-3.21,8.42,0,11.63l1.86,1.86-.04.04,11.63,11.63,13.48-13.48c3.21-3.21,3.21-8.42,0-11.63Z"/><path class="cls-1" d="M388.29,540.54l-6.65-63.76-30.63,72.63h-5.13c2.36-42-21.21-51.98-30.63-76.37l-6.65,62.79c-.14,7.48,6.24,11.64,9.84,12.47.55.14.42,1.11.42,1.11h-26.89s0-.97.42-1.11c3.6-.83,11.09-4.99,12.61-12.75l7.62-73.46c.14-6.93-5.13-7.9-7.07-8.73-.42-.14-.55-.97-.55-.97h27.72c5.27,27.17,27.58,34.1,29.66,60.43l25.64-60.43h23.56s0,.83-.42.97c-2.08.69-7.07,1.94-7.21,8.73l8.18,77.76c1.25,7.62,8.18,7.62,10.4,8.46.42.14.42,1.11.42,1.11h-43.8s0-.97.42-1.11c2.08-.83,8.87-.69,8.73-7.76Z"/><path class="cls-1" d="M552.25,474.57v59.88c0,8.04,9.01,13.03,11.23,13.86.42.14.42,1.11.42,1.11h-26.89s0-.97.42-1.11c2.22-.83,11.23-5.82,11.23-13.86v-67.78c0-10.26-7.35-12.47-9.56-13.31-.42-.14-.42-.97-.42-.97h27.58c13.03,31.46,42.83,39.09,54.05,59.6v-44.63c0-8.04-9.01-13.17-11.23-14-.42-.14-.42-.97-.42-.97h26.89s0,.83-.42.97c-2.22.83-11.09,5.96-11.09,14v82.05s-4.99,0-4.99,0c-14.97-33.26-49.34-43.1-66.81-74.84Z"/><path class="cls-1" d="M702.22,455.58h-5.54s0,83.3,0,83.3c0,8.04,7.35,8.59,9.56,9.42.42.14.42,1.11.42,1.11h-43.66s0-.97.42-1.11c2.22-.83,9.56-1.39,9.56-9.42v-83.3s-5.41,0-5.41,0c-12.2,0-26.33,19.54-27.17,23.98-.14.28-1.11.42-1.11.42l4.57-27.58h81.91s4.44,27.58,4.44,27.58c0,0-.83-.14-.97-.42-.83-4.44-14.97-23.98-27.03-23.98Z"/><path class="cls-1" d="M795.91,483.85v34.1s-.97,0-1.11-.55c-.83-4.57-4.71-14.83-12.75-14.83h-13.86s0,36.31,0,36.31c0,5.96,4.02,6.79,6.93,6.79h8.04c16.35,0,32.99-25.64,34.37-28.14.14-.42.97-.42.97-.42l-9.29,32.29h-74.57s0-.97.42-1.11c2.22-.83,9.56-1.39,9.56-9.42v-76.09c0-8.04-7.35-8.59-9.56-9.42-.42-.14-.42-.97-.42-.97h72.49s0,25.36,0,25.36c0,0-.97-.14-1.11-.42-.83-2.36-6.51-21.21-19.96-21.21h-17.88s0,42.83,0,42.83h13.86s.55,0,.55,0c7.62-.42,11.36-10.26,12.2-14.69.14-.42,1.11-.42,1.11-.42Z"/><path class="cls-1" d="M483.09,509.49l-14.83-33.4-21.48,49.9-3.33,7.76-.97,2.36c-1.94,6.79,3.33,11.37,5.41,12.2.42.14.42,1.11.42,1.11h-23.28s0-.97.42-1.11c2.22-.83,10.81-7.48,13.58-13.86v.28s36.17-84.13,36.17-84.13h7.62s39.64,89.26,39.64,89.26c2.91,5.82,8.32,7.62,10.4,8.46.42.14.55,1.11.55,1.11h-42.55s0-.97.42-1.11c2.08-.83,7.76-1.52,5.27-8.46l-9.15-20.65-4.3-9.7Z"/><path class="cls-1" d="M481.31,513.6h0c-3.21-3.21-8.42-3.21-11.63,0l-1.81,1.81-1.86-1.86c-3.21-3.21-8.42-3.21-11.63,0h0c-3.21,3.21-3.21,8.42,0,11.63l1.86,1.86-.04.04,11.63,11.63,13.48-13.48c3.21-3.21,3.21-8.42,0-11.63Z"/><rect class="cls-1" x="362.83" y="596.2" width="91.98" height="4"/><path class="cls-1" d="M856.14,399.8h-224.38v4h224.38c24.84,0,45.04,20.21,45.04,45.04v102.32c0,24.84-20.21,45.04-45.04,45.04h-107.21v4h107.21c27.04,0,49.04-22,49.04-49.04v-102.32c0-27.04-22-49.04-49.04-49.04Z"/><path class="cls-1" d="M339.5,600.2h-195.65c-27.04,0-49.04-22-49.04-49.04v-102.32c0-27.04,22-49.04,49.04-49.04h466.95v4H143.86c-24.84,0-45.04,20.21-45.04,45.04v102.32c0,24.84,20.21,45.04,45.04,45.04h195.65v4Z"/><path class="cls-1" d="M129.8,448.28h-4v-25.48c0-29.67,24.14-53.8,53.8-53.8h54.21v4h-54.21c-27.46,0-49.8,22.34-49.8,49.8v25.48Z"/><rect class="cls-1" x="125.8" y="479.28" width="4" height="41.68"/><path class="cls-1" d="M760.06,631H179.6c-29.67,0-53.8-24.14-53.8-53.8v-24.73h4v24.73c0,27.46,22.34,49.8,49.8,49.8h580.46v4Z"/><path class="cls-1" d="M820.4,631h-27.86v-4h27.86c27.46,0,49.8-22.34,49.8-49.8v-24.73h4v24.73c0,29.67-24.14,53.8-53.8,53.8Z"/><rect class="cls-1" x="870.2" y="478.87" width="4" height="41.92"/><path class="cls-1" d="M874.2,447.31h-4v-24.51c0-27.46-22.34-49.8-49.8-49.8H267.76v-4h552.64c29.67,0,53.8,24.14,53.8,53.8v24.51Z"/><path class="cls-1" d="M127.8,485.6c-1.1,0-2-.9-2-2,0-7.4-10.59-17.99-17.99-17.99-1.1,0-2-.9-2-2s.9-2,2-2c7.4,0,17.99-10.59,17.99-17.99,0-1.1.9-2,2-2s2,.9,2,2c0,7.4,10.59,17.99,17.99,17.99,1.1,0,2,.9,2,2s-.9,2-2,2c-7.4,0-17.99,10.59-17.99,17.99,0,1.1-.9,2-2,2ZM115.17,463.61c5.13,2.62,10.01,7.49,12.63,12.63,2.62-5.13,7.49-10.01,12.63-12.63-5.13-2.62-10.01-7.49-12.63-12.63-2.62,5.13-7.49,10.01-12.63,12.63Z"/><path class="cls-1" d="M127.8,558.38c-1.1,0-2-.9-2-2,0-7.4-10.59-17.99-17.99-17.99-1.1,0-2-.9-2-2s.9-2,2-2c7.4,0,17.99-10.59,17.99-17.99,0-1.1.9-2,2-2s2,.9,2,2c0,7.4,10.59,17.99,17.99,17.99,1.1,0,2,.9,2,2s-.9,2-2,2c-7.4,0-17.99,10.59-17.99,17.99,0,1.1-.9,2-2,2ZM115.17,536.39c5.13,2.62,10.01,7.49,12.63,12.63,2.62-5.13,7.49-10.01,12.63-12.63-5.13-2.62-10.01-7.49-12.63-12.63-2.62,5.13-7.49,10.01-12.63,12.63Z"/><path class="cls-1" d="M872.2,485.6c-1.1,0-2-.9-2-2,0-7.4-10.59-17.99-17.99-17.99-1.1,0-2-.9-2-2s.9-2,2-2c7.4,0,17.99-10.59,17.99-17.99,0-1.1.9-2,2-2s2,.9,2,2c0,7.4,10.59,17.99,17.99,17.99,1.1,0,2,.9,2,2s-.9,2-2,2c-7.4,0-17.99,10.59-17.99,17.99,0,1.1-.9,2-2,2ZM859.57,463.61c5.13,2.62,10.01,7.49,12.63,12.63,2.62-5.13,7.49-10.01,12.63-12.63-5.13-2.62-10.01-7.49-12.63-12.63-2.62,5.13-7.49,10.01-12.63,12.63Z"/><path class="cls-1" d="M872.2,558.38c-1.1,0-2-.9-2-2,0-7.4-10.59-17.99-17.99-17.99-1.1,0-2-.9-2-2s.9-2,2-2c7.4,0,17.99-10.59,17.99-17.99,0-1.1.9-2,2-2s2,.9,2,2c0,7.4,10.59,17.99,17.99,17.99,1.1,0,2,.9,2,2s-.9,2-2,2c-7.4,0-17.99,10.59-17.99,17.99,0,1.1-.9,2-2,2ZM859.57,536.39c5.13,2.62,10.01,7.49,12.63,12.63,2.62-5.13,7.49-10.01,12.63-12.63-5.13-2.62-10.01-7.49-12.63-12.63-2.62,5.13-7.49,10.01-12.63,12.63Z"/><path class="cls-1" d="M621.11,418.24c-1.1,0-2-.9-2-2,0-5-7.44-12.44-12.44-12.44-1.1,0-2-.9-2-2s.9-2,2-2c5,0,12.44-7.44,12.44-12.44,0-1.1.9-2,2-2s2,.9,2,2c0,5,7.44,12.44,12.44,12.44,1.1,0,2,.9,2,2s-.9,2-2,2c-5,0-12.44,7.44-12.44,12.44,0,1.1-.9,2-2,2ZM613.1,401.8c3.19,1.86,6.15,4.83,8.02,8.02,1.86-3.19,4.83-6.15,8.02-8.02-3.19-1.86-6.15-4.83-8.02-8.02-1.86,3.19-4.83,6.15-8.02,8.02Z"/><path class="cls-1" d="M349.82,614.64c-1.1,0-2-.9-2-2,0-5-7.44-12.44-12.44-12.44-1.1,0-2-.9-2-2s.9-2,2-2c5,0,12.44-7.44,12.44-12.44,0-1.1.9-2,2-2s2,.9,2,2c0,5,7.44,12.44,12.44,12.44,1.1,0,2,.9,2,2s-.9,2-2,2c-5,0-12.44,7.44-12.44,12.44,0,1.1-.9,2-2,2ZM341.81,598.2c3.19,1.86,6.15,4.83,8.02,8.02,1.86-3.19,4.83-6.15,8.02-8.02-3.19-1.86-6.15-4.83-8.02-8.02-1.86,3.19-4.83,6.15-8.02,8.02Z"/><path class="cls-1" d="M250.01,393.16c-1.1,0-2-.9-2-2,0-7.47-10.7-18.17-18.17-18.17-1.1,0-2-.9-2-2s.9-2,2-2c7.47,0,18.17-10.7,18.17-18.17,0-1.1.9-2,2-2s2,.9,2,2c0,7.47,10.7,18.17,18.17,18.17,1.1,0,2,.9,2,2s-.9,2-2,2c-7.47,0-18.17,10.7-18.17,18.17,0,1.1-.9,2-2,2ZM237.23,371c5.2,2.65,10.14,7.58,12.78,12.78,2.65-5.2,7.58-10.13,12.78-12.78-5.2-2.65-10.14-7.58-12.78-12.78-2.65,5.2-7.58,10.13-12.78,12.78Z"/><path class="cls-1" d="M776.17,651.17c-1.1,0-2-.9-2-2,0-7.47-10.7-18.17-18.17-18.17-1.1,0-2-.9-2-2s.9-2,2-2c7.47,0,18.17-10.7,18.17-18.17,0-1.1.9-2,2-2s2,.9,2,2c0,7.47,10.7,18.17,18.17,18.17,1.1,0,2,.9,2,2s-.9,2-2,2c-7.47,0-18.17,10.7-18.17,18.17,0,1.1-.9,2-2,2ZM763.39,629c5.2,2.65,10.14,7.58,12.78,12.78,2.65-5.2,7.58-10.14,12.78-12.78-5.2-2.65-10.14-7.58-12.78-12.78-2.65,5.2-7.58,10.14-12.78,12.78Z"/><path class="cls-1" d="M464.83,599.97h1.29c.66,2.05,2.21,3.2,4.22,3.2,1.58,0,2.67-.76,2.67-1.85,0-.49-.23-.99-.63-1.29-.73-.59-.76-.59-3.47-1.45-2.61-.79-4.13-2.38-4.13-4.26,0-2.31,2.15-4.19,4.82-4.19.96,0,2.48.46,3.8,1.12.2-.2.4-.5.63-.92h1.09v4.06h-1.16c-.56-1.82-2.18-3-4.06-3-1.29,0-2.28.69-2.28,1.55s.96,1.58,2.77,2.08c3.07.83,3.53,1.02,4.29,1.82.92.96,1.35,1.91,1.35,3.14,0,2.74-2.11,4.55-5.25,4.55-1.39,0-2.64-.33-3.73-1.02-.2-.1-.23-.13-.4-.17-.26.26-.5.59-.66,1.06h-1.19v-4.42Z"/><path class="cls-1" d="M491.96,601.33c-1.09,1.95-3.47,3.2-6.14,3.2-4.26,0-7.36-3.04-7.36-7.23s3.07-7.13,7.26-7.13c3.83,0,6.53,2.51,6.53,6.11v.23h-9.18c-.03.36-.03.59-.03.89,0,3.53,1.39,5.48,3.89,5.48,1.52,0,2.9-.79,3.76-2.18l1.25.63ZM487.97,595.22c.03-.17.03-.26.03-.43,0-1.98-.89-3.2-2.34-3.2-.76,0-1.52.4-1.88.96-.4.63-.53,1.22-.66,2.67h4.85Z"/><path class="cls-1" d="M510.67,601.23c-.1,1.95-1.45,3.1-3.7,3.1-1.68,0-2.87-.66-3.43-1.95-1.78,1.29-3.63,1.95-5.38,1.95-2.21,0-3.7-1.19-3.7-2.97,0-.83.4-1.78.96-2.28,1.12-.96,2.87-1.95,5.18-2.84.3-.1.79-.3,1.42-.56l1.32-.5v-1.02c0-1.06-.17-1.68-.59-1.98-.4-.33-1.16-.56-1.91-.56s-1.52.23-1.88.53c-.2.2-.36.59-.46,1.19-.2,1.15-.83,1.68-1.88,1.68-.96,0-1.65-.59-1.65-1.45,0-1.95,2.97-3.4,6.9-3.4,2.38,0,3.96.46,4.88,1.45.69.73.86,1.25.86,2.9v5.91c0,1.42.23,1.95.92,1.95.53,0,.92-.43,1.06-1.16h1.09ZM503.15,596.71c-3.27,1.32-4.46,2.31-4.46,3.76,0,1.06.79,1.88,1.78,1.88.86,0,1.85-.5,2.87-1.42v-4.29l-.2.07Z"/><path class="cls-1" d="M512.58,599.97h1.29c.66,2.05,2.21,3.2,4.22,3.2,1.58,0,2.67-.76,2.67-1.85,0-.49-.23-.99-.63-1.29-.73-.59-.76-.59-3.47-1.45-2.61-.79-4.13-2.38-4.13-4.26,0-2.31,2.15-4.19,4.82-4.19.96,0,2.48.46,3.8,1.12.2-.2.4-.5.63-.92h1.09v4.06h-1.16c-.56-1.82-2.18-3-4.06-3-1.29,0-2.28.69-2.28,1.55s.96,1.58,2.77,2.08c3.07.83,3.53,1.02,4.29,1.82.92.96,1.35,1.91,1.35,3.14,0,2.74-2.11,4.55-5.25,4.55-1.39,0-2.64-.33-3.73-1.02-.2-.1-.23-.13-.4-.17-.26.26-.5.59-.66,1.06h-1.19v-4.42Z"/><path class="cls-1" d="M541.76,597.37c0,4.09-3.27,7.16-7.62,7.16-4.65,0-7.92-2.94-7.92-7.13s3.23-7.23,7.79-7.23,7.76,3,7.76,7.2ZM531.49,592.94c-.5.89-.69,2.21-.69,4.39s.2,3.53.69,4.42c.46.79,1.42,1.32,2.44,1.32,2.38,0,3.23-1.52,3.23-5.78s-.89-5.68-3.17-5.68c-1.12,0-2.05.5-2.51,1.32Z"/><path class="cls-1" d="M549.81,590.4c.2.53.33,1.19.36,2.18,1.39-1.55,3.17-2.41,5.05-2.41,1.68,0,3.23.76,3.93,1.98.43.79.56,1.49.56,3.27v4.46c.07,2.25.4,2.71,1.95,2.74h.17v1.39h-8.28v-1.39l.23-.03c1.32-.1,1.55-.46,1.62-2.71v-5.38c0-1.32-.73-2.14-1.91-2.14s-2.21.73-3.37,2.31v5.21c.07,2.25.3,2.64,1.72,2.74h.13v1.39h-8.25v-1.39h.13c1.62-.03,1.95-.5,2.01-2.74v-4.42c-.1-2.05-.53-2.61-2.01-2.61h-.17v-1.39c.69-.13,1.12-.2,2.94-.5,1.52-.23,2.21-.36,2.94-.56h.26Z"/><path class="cls-1" d="M576.93,601.33c-1.09,1.95-3.47,3.2-6.14,3.2-4.26,0-7.36-3.04-7.36-7.23s3.07-7.13,7.26-7.13c3.83,0,6.53,2.51,6.53,6.11v.23h-9.18c-.03.36-.03.59-.03.89,0,3.53,1.39,5.48,3.89,5.48,1.52,0,2.9-.79,3.76-2.18l1.25.63ZM572.94,595.22c.03-.17.03-.26.03-.43,0-1.98-.89-3.2-2.34-3.2-.76,0-1.52.4-1.88.96-.4.63-.53,1.22-.66,2.67h4.85Z"/><path class="cls-1" d="M597.26,603.8c-2.44.07-4.62.3-6.11.59-.23-.73-.33-1.29-.33-2.05v-.2c-1.45,1.49-3.17,2.25-5.05,2.25-3.7,0-6.21-2.77-6.21-6.9,0-4.39,2.64-7.33,6.54-7.33,1.81,0,3.56.69,4.69,1.82v-5.21c-.07-2.21-.43-2.71-2.05-2.74h-.17v-1.39c2.31-.17,4.85-.56,6.21-.96h.23l.03,17.92c0,2.15.43,2.74,1.98,2.74h.23v1.45ZM590.79,593.6c-1.19-1.06-2.18-1.52-3.27-1.52-2.24,0-3.37,1.68-3.37,5.12s1.09,5.25,3.17,5.25c1.35,0,2.61-.76,3.47-2.11v-6.73Z"/><path class="cls-1" d="M622.28,604.36l-3.99-9.21-3.89,9.21h-2.15l-4.13-9.97c-.89-2.05-1.09-2.24-2.21-2.31h-.17v-1.39h7.95v1.39h-.17c-1.02,0-1.55.23-1.55.69,0,.17.17.63.46,1.42l2.28,5.71,3.96-9.21h2.08l3.96,9.21,2.31-5.94c.3-.79.33-.83.33-1.02,0-.53-.59-.83-1.62-.86h-.2v-1.39h5.28v1.39h-.07c-1.25.1-1.55.46-2.54,2.97l-3.8,9.31h-2.15Z"/><path class="cls-1" d="M638.94,599.87c.07,2.21.43,2.71,2.01,2.74h.2v1.39h-8.98v-1.39h.43c1.65-.03,2.01-.5,2.08-2.74v-4.55c0-2.08-.46-2.67-2.11-2.64h-.4v-1.42c1.29-.1,5.48-.83,6.53-1.09h.23v9.7ZM639.24,584.16c0,1.39-1.12,2.51-2.51,2.51s-2.48-1.16-2.48-2.58,1.12-2.47,2.51-2.47,2.48,1.12,2.48,2.54Z"/><path class="cls-1" d="M648.31,592.15v7.26c0,1.72.03,2.08.33,2.57.23.46.63.66,1.12.66.76,0,1.29-.4,1.82-1.35l1.22.46c-.73,1.72-2.44,2.77-4.62,2.77-2.71,0-4.13-1.62-4.13-4.72v-7.66h-1.95v-1.45c.17.03.3.03.3.03,2.31,0,4.19-1.82,4.59-4.36h1.32v4.32h3.99v1.45h-3.99Z"/><path class="cls-1" d="M654.09,582.71c2.41-.2,4.88-.63,6.24-1.09h.23l-.03,11.02c1.35-1.65,2.97-2.48,4.92-2.48,1.75,0,3.37.79,4.06,2.01.43.76.59,1.68.59,3.46v4.22c.07,2.25.4,2.71,1.91,2.74h.2v1.39h-8.28v-1.39l.23-.03c1.32-.1,1.55-.46,1.62-2.71v-4.72c0-1.98-.59-2.84-1.98-2.84-1.22,0-2.24.76-3.27,2.38v5.18c.07,2.25.3,2.64,1.68,2.74h.1v1.39h-8.25v-1.39h.17c1.65-.03,1.98-.5,2.05-2.74v-13.3c-.03-1.98-.36-2.41-2.05-2.48h-.13v-1.39Z"/><path class="cls-1" d="M681.54,582.71c2.38-.2,4.88-.66,6.2-1.09h.23l-.03,18.25c.03,2.11.46,2.74,2.08,2.74h.23v1.39h-8.81v-1.39h.23c1.62-.03,1.95-.5,2.01-2.74v-13.27c-.03-2.01-.36-2.44-2.01-2.51h-.13v-1.39Z"/><path class="cls-1" d="M707.52,597.37c0,4.09-3.27,7.16-7.62,7.16-4.65,0-7.92-2.94-7.92-7.13s3.23-7.23,7.79-7.23,7.76,3,7.76,7.2ZM697.25,592.94c-.5.89-.69,2.21-.69,4.39s.2,3.53.69,4.42c.46.79,1.42,1.32,2.44,1.32,2.38,0,3.23-1.52,3.23-5.78s-.89-5.68-3.17-5.68c-1.12,0-2.05.5-2.51,1.32Z"/><path class="cls-1" d="M715.43,604.33l-4.69-9.7c-1.09-2.18-1.39-2.51-2.38-2.54h-.13v-1.39h7.79v1.39h-.2c-.83,0-1.32.26-1.32.66,0,.23.17.69.43,1.25l3.07,6.5,3-6.27c.26-.56.43-1.09.43-1.35,0-.43-.53-.76-1.25-.79h-.17v-1.39h4.88v1.39h-.16c-1.06.2-1.42.63-2.64,3.23l-4.39,9.01h-2.28Z"/><path class="cls-1" d="M739.2,601.33c-1.09,1.95-3.47,3.2-6.14,3.2-4.26,0-7.36-3.04-7.36-7.23s3.07-7.13,7.26-7.13c3.83,0,6.53,2.51,6.53,6.11v.23h-9.18c-.03.36-.03.59-.03.89,0,3.53,1.39,5.48,3.9,5.48,1.52,0,2.9-.79,3.76-2.18l1.25.63ZM735.2,595.22c.03-.17.03-.26.03-.43,0-1.98-.89-3.2-2.34-3.2-.76,0-1.52.4-1.88.96-.4.63-.53,1.22-.66,2.67h4.85Z"/></svg>