<?xml version="1.0" encoding="UTF-8"?><svg id="Layer_1" xmlns="http://www.w3.org/2000/svg" viewBox="0 0 1000 1000"><defs><style>.cls-1{fill:#ffc9d1;}.cls-1,.cls-2{stroke-width:0px;}.cls-2{fill:#a50201;}</style></defs><rect class="cls-2" x="-5.33" y="-5.33" width="1010.66" height="1010.66"/><path class="cls-1" d="M667.24,734.65h-54.87c-2.38,0-4.31-1.93-4.31-4.31s1.93-4.31,4.31-4.31h54.87c52.03,0,94.36-42.33,94.36-94.36v-225.55c0-52.03-42.33-94.36-94.36-94.36h-334.48c-52.03,0-94.36,42.33-94.36,94.36v225.55c0,52.03,42.33,94.36,94.36,94.36h236.97c2.38,0,4.31,1.93,4.31,4.31s-1.93,4.31-4.31,4.31h-236.97c-56.78,0-102.98-46.2-102.98-102.98v-225.55c0-56.78,46.2-102.98,102.98-102.98h334.48c56.78,0,102.98,46.19,102.98,102.98v225.55c0,56.78-46.19,102.98-102.98,102.98Z"/><path class="cls-1" d="M288.55,434.3c-2.38,0-4.31-1.93-4.31-4.31v-78.34c0-56.78,46.2-102.98,102.98-102.98h8.13c2.38,0,4.31,1.93,4.31,4.31s-1.93,4.31-4.31,4.31h-8.13c-52.03,0-94.36,42.33-94.36,94.36v78.34c0,2.38-1.93,4.31-4.31,4.31Z"/><path class="cls-1" d="M612.78,789.11h-225.55c-56.78,0-102.98-46.19-102.98-102.98v-210.88c0-2.38,1.93-4.31,4.31-4.31s4.31,1.93,4.31,4.31v210.88c0,52.03,42.33,94.36,94.36,94.36h225.55c52.03,0,94.36-42.33,94.36-94.36v-64.51c0-2.38,1.93-4.31,4.31-4.31s4.31,1.93,4.31,4.31v64.51c0,56.78-46.2,102.98-102.98,102.98Z"/><path class="cls-1" d="M711.45,563.53c-2.38,0-4.31-1.93-4.31-4.31v-207.57c0-52.03-42.33-94.36-94.36-94.36h-161.69c-2.38,0-4.31-1.93-4.31-4.31s1.93-4.31,4.31-4.31h161.69c56.78,0,102.98,46.2,102.98,102.98v207.57c0,2.38-1.93,4.31-4.31,4.31Z"/><path class="cls-1" d="M421.66,295.07c-2.38,0-4.31-1.93-4.31-4.31,0-13.77-19.71-33.48-33.48-33.48-2.38,0-4.31-1.93-4.31-4.31s1.93-4.31,4.31-4.31c13.77,0,33.48-19.71,33.48-33.48,0-2.38,1.93-4.31,4.31-4.31s4.31,1.93,4.31,4.31c0,13.77,19.71,33.48,33.48,33.48,2.38,0,4.31,1.93,4.31,4.31s-1.93,4.31-4.31,4.31c-13.77,0-33.48,19.71-33.48,33.48,0,2.38-1.93,4.31-4.31,4.31ZM398.87,252.98c9.19,4.96,17.83,13.6,22.79,22.79,4.96-9.19,13.6-17.83,22.79-22.79-9.19-4.96-17.83-13.6-22.79-22.79-4.96,9.19-13.6,17.83-22.79,22.79Z"/><path class="cls-1" d="M711.45,630.93c-2.38,0-4.31-1.93-4.31-4.31,0-13.77-19.71-33.48-33.48-33.48-2.38,0-4.31-1.93-4.31-4.31s1.93-4.31,4.31-4.31c13.77,0,33.48-19.71,33.48-33.48,0-2.38,1.93-4.31,4.31-4.31s4.31,1.93,4.31,4.31c0,13.77,19.71,33.48,33.48,33.48,2.38,0,4.31,1.93,4.31,4.31s-1.93,4.31-4.31,4.31c-13.77,0-33.48,19.71-33.48,33.48,0,2.38-1.93,4.31-4.31,4.31ZM688.66,588.84c9.19,4.96,17.83,13.6,22.79,22.79,4.96-9.19,13.6-17.83,22.79-22.79-9.19-4.96-17.83-13.6-22.79-22.79-4.96,9.19-13.6,17.83-22.79,22.79Z"/><path class="cls-1" d="M510.89,545.54l-41.62-93.75-60.29,140.03-9.34,21.78-2.72,6.61c-5.45,19.06,9.34,31.9,15.17,34.23,1.17.39,1.17,3.11,1.17,3.11h-65.35s0-2.72,1.17-3.11c6.22-2.33,30.34-21.01,38.12-38.9v.78s101.52-236.11,101.52-236.11h21.4s111.25,250.51,111.25,250.51c8.17,16.34,23.34,21.4,29.17,23.73,1.17.39,1.56,3.11,1.56,3.11h-119.42s0-2.72,1.17-3.11c5.83-2.33,21.78-4.28,14.78-23.73l-25.67-57.96-12.06-27.23Z"/><path class="cls-1" d="M505.9,557.06h0c-9.01-9.01-23.63-9.01-32.65,0l-5.07,5.07-5.22-5.22c-9.01-9.01-23.63-9.01-32.65,0h0c-9.01,9.01-9.01,23.63,0,32.65l5.22,5.22-.11.11,32.65,32.65,37.82-37.82c9.01-9.01,9.01-23.63,0-32.65Z"/><path class="cls-1" d="M589.7,764.02c-2.38,0-4.31-1.93-4.31-4.31,0-10.07-14.99-25.07-25.07-25.07-2.38,0-4.31-1.93-4.31-4.31s1.93-4.31,4.31-4.31c10.07,0,25.07-14.99,25.07-25.07,0-2.38,1.93-4.31,4.31-4.31s4.31,1.93,4.31,4.31c0,10.07,14.99,25.07,25.07,25.07,2.38,0,4.31,1.93,4.31,4.31s-1.93,4.31-4.31,4.31c-10.07,0-25.07,14.99-25.07,25.07,0,2.38-1.93,4.31-4.31,4.31ZM573.84,730.34c6.28,3.76,12.1,9.58,15.86,15.86,3.76-6.28,9.58-12.1,15.86-15.86-6.28-3.76-12.1-9.58-15.86-15.86-3.76,6.28-9.58,12.1-15.86,15.86Z"/><path class="cls-1" d="M288.55,485.65c-2.38,0-4.31-1.93-4.31-4.31,0-10.07-14.99-25.07-25.07-25.07-2.38,0-4.31-1.93-4.31-4.31s1.93-4.31,4.31-4.31c10.07,0,25.07-14.99,25.07-25.07,0-2.38,1.93-4.31,4.31-4.31s4.31,1.93,4.31,4.31c0,10.07,14.99,25.07,25.07,25.07,2.38,0,4.31,1.93,4.31,4.31s-1.93,4.31-4.31,4.31c-10.07,0-25.07,15-25.07,25.07,0,2.38-1.93,4.31-4.31,4.31ZM272.69,451.97c6.28,3.76,12.1,9.59,15.86,15.86,3.76-6.28,9.59-12.1,15.86-15.86-6.28-3.76-12.1-9.58-15.86-15.86-3.76,6.28-9.59,12.1-15.86,15.86Z"/></svg>